<svg width="512" height="512" xmlns="http://www.w3.org/2000/svg">

 <g>
  <title>background</title>
  <rect fill="none" id="canvas_background" height="402" width="582" y="-1" x="-1"/>
 </g>
 <g>
  <title>Layer 1</title>
  <path fill="#f4f4f4" id="svg_4" d="m157.309998,226.229996c-1.789993,0 -3.580002,-0.679993 -4.949997,-2.050003l-26.779999,-26.779999l-52.57,0c-1.860001,0 -3.639999,-0.73999 -4.950005,-2.049988l-11.009998,-11.01001c-2.73,-2.730011 -2.73,-7.170013 0,-9.899994c2.73,-2.729996 7.170002,-2.729996 9.899998,0l8.960007,8.959991l52.569992,0c1.860001,0 3.639999,0.740005 4.949997,2.050003l23.880005,23.87999l34.419998,-34.419983c3.900009,-3.900009 9.090012,-6.050003 14.610001,-6.050003l20.01001,0l2.199997,-2.210007c2.729996,-2.73999 7.160004,-2.73999 9.899994,-0.009995s2.740005,7.160004 0.01001,9.899994l-4.25,4.26001c-1.310013,1.319992 -3.100006,2.059998 -4.960007,2.059998l-22.910004,0c-1.779999,0 -3.459991,0.690002 -4.709991,1.949997l-39.37001,39.369995c-1.369995,1.360001 -3.159988,2.050003 -4.949997,2.050003z" class="st0"/>
  <path fill="#f4f4f4" id="svg_6" d="m29.469999,153.860001c-1.789999,0 -3.58,-0.680008 -4.949999,-2.050003l-5.08,-5.080002c-1.310001,-1.309998 -2.050001,-3.089996 -2.050001,-4.949997l-0.01,-68.769997c0,-1.870003 0.75,-3.660004 2.070002,-4.970001l1.09,-1.080002c2.74,-2.709999 7.15,-2.699997 9.879999,0.020004l63.609999,63.610008l36.550003,-36.560013l-63.610001,-63.609999c-2.730003,-2.73 -2.730003,-7.17 0,-9.9l1.089996,-1.09c1.310005,-1.309999 3.090004,-2.050001 4.950005,-2.050001l0,0l68.760002,0.01c1.860001,0 3.639999,0.74 4.949997,2.050001l48.610001,48.619997c1.309998,1.310005 2.050003,3.090004 2.050003,4.950005l0,52.57l13.679993,13.669998c2.729996,2.729996 2.729996,7.169998 0,9.899994c-2.729996,2.730011 -7.169998,2.730011 -9.899994,0l-15.730011,-15.729996c-1.309998,-1.309998 -2.049988,-3.089996 -2.049988,-4.949997l0,-52.559998l-44.509995,-44.509995l-51.139999,-0.009998l57.699997,57.700001c2.729996,2.729996 2.729996,7.169998 0,9.900002l-46.449997,46.459984c-1.309998,1.309998 -3.090004,2.050003 -4.950005,2.050003c-1.859993,0 -3.639999,-0.740005 -4.949997,-2.050003l-57.699999,-57.699997l0.01,51.139999l3.029999,3.029999c2.73,2.729996 2.73,7.169998 0,9.900009c-1.360008,1.359985 -3.160009,2.039993 -4.95001,2.039993z" class="st0"/>
  <path fill="#f4f4f4" id="svg_8" d="m45.18,169.570007c-1.84,0 -3.639999,-0.75 -4.950001,-2.050003c-1.299999,-1.299988 -2.049999,-3.099991 -2.049999,-4.949997c0,-0.459991 0.049999,-0.919998 0.139999,-1.369995c0.09,-0.440002 0.220001,-0.880005 0.400002,-1.309998c0.169998,-0.419998 0.389999,-0.830002 0.639999,-1.210007c0.259998,-0.380005 0.549999,-0.740005 0.869999,-1.059998c1.310001,-1.300003 3.110001,-2.050003 4.950001,-2.050003s3.650002,0.75 4.950001,2.050003c0.329998,0.319992 0.619999,0.679993 0.869999,1.059998s0.470001,0.790009 0.650002,1.210007c0.169998,0.429993 0.299999,0.869995 0.389999,1.309998c0.09,0.449997 0.139999,0.910004 0.139999,1.369995c0,1.839996 -0.75,3.650009 -2.049999,4.949997c-0.32,0.320007 -0.68,0.610001 -1.060001,0.87001c-0.380001,0.25 -0.790001,0.470001 -1.209999,0.639999c-0.420002,0.179993 -0.860001,0.309998 -1.310001,0.399994s-0.91,0.139999 -1.369999,0.139999z" class="st0"/>
  <path fill="#f4f4f4" id="svg_10" d="m438.98999,494.619995l0,0l-68.76001,-0.01001c-1.859985,0 -3.639984,-0.73999 -4.949982,-2.049988l-48.619995,-48.619995c-1.310028,-1.309998 -2.050018,-3.089996 -2.050018,-4.950012l0,-52.569977l-6.139984,-6.140015c-2.730011,-2.730011 -2.730011,-7.170013 0,-9.899994c2.72998,-2.730011 7.169983,-2.730011 9.899994,0l8.190002,8.190002c1.309998,1.309998 2.049988,3.089996 2.049988,4.949982l0,52.570007l44.52002,44.509979l51.129974,0.01001l-57.699982,-57.699982c-1.309998,-1.310028 -2.050018,-3.090027 -2.050018,-4.950012c0,-1.860016 0.740021,-3.640015 2.050018,-4.950012l46.459991,-46.449982c2.73999,-2.730011 7.170013,-2.730011 9.899994,0l57.690002,57.699982l-0.01001,-51.139984l-44.509979,-44.51001l-52.570007,0c-1.859985,0 -3.639984,-0.73999 -4.950012,-2.049988l-27.809998,-27.809998l-45.609985,45.600006c-4.059998,4.059998 -8.410004,7.829987 -12.940002,11.209991c-3.100006,2.309998 -7.48999,1.670013 -9.799988,-1.419983c-2.310028,-3.100006 -1.670013,-7.490021 1.419983,-9.800018c3.980011,-2.970001 7.820007,-6.299988 11.410004,-9.889984l50.380005,-50.380035c0.049988,-0.049988 0.100006,-0.099976 0.149994,-0.139984l0.170013,-0.160004c2.75,-2.600006 7.079987,-2.540009 9.75,0.140015l30.709991,30.709991l52.570007,0c1.859985,0 3.639984,0.73999 4.949982,2.049988l48.610016,48.610016c1.309998,1.309998 2.049988,3.089996 2.049988,4.949982l0.01001,68.76001c0,1.860016 -0.740021,3.640015 -2.050018,4.950012l-1.089996,1.089996c-1.309998,1.309998 -3.089996,2.049988 -4.949982,2.049988c0,0 0,0 0,0c-1.860016,0 -3.640015,-0.73999 -4.950012,-2.049988l-63.609985,-63.610016l-36.559998,36.550018l63.619995,63.619995c1.319977,1.320007 2.049988,3.109985 2.049988,4.970001s-0.75,3.649994 -2.079987,4.959991l-1.089996,1.079987c-1.27002,1.290039 -3.040009,2.02002 -4.890015,2.02002z" class="st0"/>
  <path fill="#f4f4f4" id="svg_12" d="m220.729996,379.329987c-3.869995,0 -7,-3.130005 -7,-7s3.130005,-7 7,-7c22.590012,0 45.000015,-7.459991 63.110001,-20.98999c3.98999,-2.980011 7.830017,-6.300018 11.420013,-9.890015l50.380005,-50.380005c0.049988,-0.049988 0.099976,-0.099976 0.149994,-0.139984l0.100006,-0.089996l6.169983,-6.170013c5.5,-5.5 8.529999,-12.809998 8.529999,-20.589996c0,-7.780014 -3.029999,-15.089996 -8.529999,-20.589996l-18.309998,-18.309998c-2.730011,-2.729996 -2.730011,-7.169998 0,-9.900009c2.730011,-2.729996 7.170013,-2.729996 9.899994,0l18.309998,18.310013c8.140015,8.139999 12.630005,18.969986 12.630005,30.48999c0,11.519989 -4.48999,22.350006 -12.630005,30.48999l-6.23999,6.23999c-0.049988,0.050018 -0.100006,0.090027 -0.149994,0.140015l-0.100006,0.089996l-50.309998,50.309998c-4.059998,4.060028 -8.410004,7.830017 -12.940002,11.210022c-20.5,15.330017 -45.889999,23.769989 -71.490005,23.769989z" class="st1"/>
  <path fill="#f4f4f4" id="svg_14" d="m321.519989,203.039993c-1.839996,0 -3.639984,-0.75 -4.950012,-2.050003c-0.319977,-0.320007 -0.609985,-0.679993 -0.869995,-1.070007c-0.25,-0.37999 -0.470001,-0.779999 -0.639984,-1.199997c-0.179993,-0.429993 -0.309998,-0.869995 -0.399994,-1.309998c-0.090027,-0.449997 -0.140015,-0.919998 -0.140015,-1.369995c0,-1.839996 0.75,-3.650009 2.049988,-4.949997c1.630005,-1.630005 4.050018,-2.37001 6.320007,-1.910004c0.450012,0.089996 0.890015,0.220001 1.309998,0.399994c0.420013,0.169998 0.830017,0.389999 1.210022,0.639999c0.379974,0.25 0.73999,0.550003 1.059998,0.87001c1.299988,1.299988 2.049988,3.099991 2.049988,4.949997c0,0.449997 -0.040009,0.919998 -0.130005,1.369995c-0.089996,0.440002 -0.22998,0.880005 -0.399994,1.309998c-0.179993,0.419998 -0.390015,0.820007 -0.649994,1.199997c-0.25,0.390015 -0.540009,0.75 -0.869995,1.070007c-0.320007,0.320007 -0.680023,0.610001 -1.059998,0.869995c-0.380005,0.25 -0.790009,0.470001 -1.210022,0.639999c-0.419983,0.180008 -0.859985,0.310013 -1.309998,0.400009c-0.449982,0.090012 -0.909973,0.139999 -1.369995,0.139999z" class="st1"/>
  <path fill="#f4f4f4" id="svg_16" d="m196,404.049988c-1.789993,0 -3.580002,-0.679993 -4.949997,-2.049988l-78.139999,-78.140015c-2.730003,-2.72998 -2.730003,-7.169983 0,-9.899994l27,-27l0,-51.669998c0,-5.440002 2.209991,-10.76001 6.059998,-14.610001l45.770004,-45.770004c3.899994,-3.899994 9.089996,-6.050003 14.610001,-6.050003l20.009995,0l8.449997,-8.459991c0.520004,-0.51001 1.229996,-1.190002 2,-1.860001c17.020004,-15.020004 42.920013,-14.210007 58.980011,1.860001l15.199982,15.199997c2.730011,2.729996 2.730011,7.169998 0,9.899994c-2.72998,2.730011 -7.169983,2.730011 -9.899994,0l-15.199982,-15.199997c-10.860016,-10.860001 -28.360016,-11.399994 -39.850021,-1.229996c-0.029999,0.029999 -0.059998,0.050003 -0.089996,0.080002c-0.360001,0.300003 -0.770004,0.690002 -1.289993,1.199997l-10.440002,10.449997c-1.309998,1.320007 -3.100006,2.059998 -4.960007,2.059998l-22.909988,0c-1.779999,0 -3.460007,0.690002 -4.710007,1.950012l-45.770004,45.769989c-1.25,1.240005 -1.959991,2.960007 -1.959991,4.710007l0,54.569992c0,1.860016 -0.740005,3.640015 -2.050003,4.950012l-24.099998,24.100006l73.189995,73.189972c2.729996,2.730011 2.729996,7.170013 0,9.900024c-1.369995,1.369995 -3.160004,2.049988 -4.949997,2.049988z" class="st1"/>
  <path fill="#f4f4f4" id="svg_18" d="m180,450.799988c-1.860001,0 -3.639999,-0.73999 -4.949997,-2.049988l-111.130005,-111.130005c-2.73,-2.72998 -2.73,-7.169983 0,-9.899994l31.380005,-31.380005c2.729996,-2.730011 7.169998,-2.730011 9.899994,0l111.12999,111.130005c2.730011,2.72998 2.730011,7.169983 0,9.899994l-31.37999,31.380005c-1.309998,1.309998 -3.089996,2.049988 -4.949997,2.049988zm-101.230003,-118.129974l101.230003,101.22998l21.479996,-21.480011l-101.239998,-101.22998l-21.470001,21.480011z" class="st1"/>
 </g>
</svg>